<svg aria-hidden="true" style="position: absolute; width: 0; height: 0; overflow: hidden;" version="1.1" xmlns="http://www.w3.org/2000/svg" xmlns:xlink="http://www.w3.org/1999/xlink">
<defs>
<symbol id="icon-Union" viewBox="0 0 20 32">
<path d="M8.129 16.249l10.038 10.038c1.307 1.307 1.307 3.426 0 4.732s-3.426 1.307-4.732 0l-12.455-12.455c-1.307-1.307-1.307-3.426 0-4.733 0.168-0.168 0.349-0.314 0.54-0.438l12.414-12.414c1.307-1.307 3.426-1.307 4.733 0s1.307 3.426 0 4.733l-10.537 10.537z"></path>
</symbol>
<symbol id="icon-Union-1" viewBox="0 0 20 32">
<path d="M11.517 16.249l-10.038 10.038c-1.307 1.307-1.307 3.426 0 4.732s3.426 1.307 4.733 0l12.455-12.455c1.307-1.307 1.307-3.426 0-4.733-0.168-0.168-0.349-0.314-0.54-0.438l-12.414-12.414c-1.307-1.307-3.426-1.307-4.733 0s-1.307 3.426 0 4.733l10.537 10.537z"></path>
</symbol>
</defs>
</svg>
